<?xml version="1.0" encoding="UTF-8" standalone="no"?><!DOCTYPE svg PUBLIC "-//W3C//DTD SVG 1.1//EN" "http://www.w3.org/Graphics/SVG/1.1/DTD/svg11.dtd"><svg width="100%" height="100%" viewBox="0 0 97 49" version="1.1" xmlns="http://www.w3.org/2000/svg" xmlns:xlink="http://www.w3.org/1999/xlink" xml:space="preserve" xmlns:serif="http://www.serif.com/" style="fill-rule:evenodd;clip-rule:evenodd;stroke-linejoin:round;stroke-miterlimit:1.5;"><rect id="inverted" x="0.388" y="0.664" width="95.733" height="48.011" style="fill:none;"/><path d="M2.705,43.388l90.864,-0" style="fill:none;stroke:#0b2e36;stroke-width:3px;"/><g transform="matrix(0.75,0,0,0.75,-138.974,-262.216)"><g transform="matrix(64,0,0,64,186.474,400)"><path d="M0.038,-0.628c0,0.061 0.049,0.092 0.102,0.092c0.053,0 0.102,-0.031 0.102,-0.092c-0,-0.062 -0.049,-0.093 -0.102,-0.093c-0.053,0 -0.102,0.031 -0.102,0.093Zm0.193,0.628l0,-0.487l-0.181,0l-0,0.487l0.181,-0Z" style="fill:#0b2e36;fill-rule:nonzero;"/></g><g transform="matrix(64,0,0,64,204.458,400)"><path d="M0.223,-0.487l-0.181,0l-0,0.487l0.181,-0l0,-0.28c0.024,-0.027 0.05,-0.045 0.081,-0.045c0.036,0 0.045,0.016 0.045,0.067l0,0.258l0.181,-0l0,-0.31c0,-0.132 -0.039,-0.185 -0.141,-0.185c-0.055,0 -0.102,0.023 -0.166,0.073l0,-0.065Z" style="fill:#0b2e36;fill-rule:nonzero;"/></g><path d="M201.797,366.22c1.214,0.249 2.127,1.324 2.127,2.612l0,31.168c0,1.473 -1.194,2.667 -2.666,2.667l-11.584,-0c-1.473,-0 -2.667,-1.194 -2.667,-2.667l-0,-31.168c-0,-1.27 0.888,-2.332 2.076,-2.601c-1.729,-1.442 -2.844,-3.599 -2.844,-6.423c-0,-5.661 4.356,-8.619 9.195,-8.619c4.838,0 9.194,2.958 9.194,8.619c0,2.817 -1.109,4.97 -2.831,6.412Zm-0.539,33.78l-0,-31.168l-11.584,-0l-0,31.168l11.584,-0Zm-12.352,-40.192c-0,3.904 3.136,5.888 6.528,5.888c3.392,-0 6.528,-1.984 6.528,-5.888c-0,-3.968 -3.136,-5.952 -6.528,-5.952c-3.392,-0 -6.528,1.984 -6.528,5.952Zm32.361,8.202c2.813,-1.63 5.326,-2.357 8.087,-2.357c3.373,0 5.878,0.82 7.711,2.36c2.58,2.166 3.979,6.005 3.979,12.147l0,19.84c0,1.473 -1.194,2.667 -2.666,2.667l-11.584,-0c-1.473,-0 -2.667,-1.194 -2.667,-2.667l-0,-16.512c-0,-0.569 -0.073,-1.23 -0.123,-1.619c-0.032,-0.001 -0.063,-0.002 -0.09,-0.002c-0.968,-0 -1.76,0.527 -2.518,1.27l0,16.863c0,1.473 -1.194,2.667 -2.666,2.667l-11.584,-0c-1.473,-0 -2.667,-1.194 -2.667,-2.667l-0,-31.168c-0,-1.473 1.194,-2.667 2.667,-2.667l11.584,0c1.185,0 2.19,0.774 2.537,1.845Zm-2.537,0.822l-11.584,-0l-0,31.168l11.584,-0l-0,-17.92c1.536,-1.728 3.2,-2.88 5.184,-2.88c2.304,-0 2.88,1.024 2.88,4.288l-0,16.512l11.584,-0l-0,-19.84c-0,-8.448 -2.496,-11.84 -9.024,-11.84c-3.52,-0 -6.528,1.472 -10.624,4.672l-0,-4.16Z" style="fill:#fff;"/><g transform="matrix(64,0,0,64,241.578,400)"><path d="M0.139,-0.536c0.053,0 0.102,-0.031 0.102,-0.092c-0,-0.062 -0.049,-0.093 -0.102,-0.093c-0.053,0 -0.102,0.031 -0.102,0.093c-0,0.061 0.049,0.092 0.102,0.092Zm0.092,0.049l-0.181,0l-0,0.419c-0,0.063 -0.01,0.095 -0.067,0.125l0.036,0.122c0.163,-0.035 0.212,-0.116 0.212,-0.247l0,-0.419Z" style="fill:#00abbe;fill-rule:nonzero;"/></g><g transform="matrix(64,0,0,64,258.922,400)"><path d="M0.281,-0.496c-0.161,0 -0.256,0.092 -0.256,0.255c-0,0.159 0.095,0.25 0.256,0.25c0.161,-0 0.256,-0.091 0.256,-0.25c0,-0.163 -0.095,-0.255 -0.256,-0.255Zm0,0.363c-0.05,0 -0.079,-0.027 -0.079,-0.108c0,-0.085 0.03,-0.113 0.079,-0.113c0.049,0 0.079,0.028 0.079,0.113c-0,0.081 -0.03,0.108 -0.079,0.108Z" style="fill:#00abbe;fill-rule:nonzero;"/></g><g transform="matrix(64,0,0,64,294.57,400)"><path d="M0.038,-0.628c0,0.061 0.049,0.092 0.102,0.092c0.053,0 0.102,-0.031 0.102,-0.092c-0,-0.062 -0.049,-0.093 -0.102,-0.093c-0.053,0 -0.102,0.031 -0.102,0.093Zm0.193,0.628l0,-0.487l-0.181,0l-0,0.487l0.181,-0Z" style="fill:#00abbe;fill-rule:nonzero;"/></g><path d="M244.137,366.243c-1.737,-1.442 -2.858,-3.604 -2.858,-6.435c-0,-5.661 4.356,-8.619 9.195,-8.619c4.838,0 9.194,2.958 9.194,8.619c0,2.81 -1.104,4.96 -2.819,6.402c1.24,0.229 2.179,1.316 2.179,2.622l0,8.158c0.873,-2.534 2.212,-4.668 3.947,-6.382c3.252,-3.216 7.963,-5.019 13.931,-5.019c5.968,0 10.678,1.803 13.93,5.019c1.963,1.94 3.419,4.416 4.267,7.402l-0,-9.178c-0,-1.27 0.888,-2.332 2.076,-2.601c-1.729,-1.442 -2.844,-3.599 -2.844,-6.423c-0,-5.661 4.356,-8.619 9.195,-8.619c4.838,0 9.194,2.958 9.194,8.619c0,2.817 -1.109,4.97 -2.831,6.412c1.214,0.249 2.127,1.324 2.127,2.612l0,31.168c0,1.473 -1.194,2.667 -2.666,2.667l-11.584,-0c-1.473,-0 -2.667,-1.194 -2.667,-2.667l-0,-8.99c-0.85,2.936 -2.311,5.379 -4.283,7.295c-3.249,3.156 -7.954,4.938 -13.914,4.938c-5.961,-0 -10.666,-1.782 -13.915,-4.938c-1.743,-1.694 -3.088,-3.799 -3.963,-6.294l0,3.637c0,4.886 -1.018,8.81 -3.452,11.868c-2.398,3.014 -6.232,5.261 -12.223,6.547c-1.363,0.293 -2.722,-0.515 -3.117,-1.852l-2.304,-7.808c-0.36,-1.219 0.191,-2.523 1.316,-3.115c0.996,-0.524 1.698,-1.018 2.141,-1.652c0.698,-0.999 0.722,-2.251 0.722,-3.988l-0,-26.816c-0,-1.252 0.863,-2.303 2.026,-2.589Zm6.337,-0.547c3.392,-0 6.528,-1.984 6.528,-5.888c-0,-3.968 -3.136,-5.952 -6.528,-5.952c-3.392,-0 -6.528,1.984 -6.528,5.952c-0,3.904 3.136,5.888 6.528,5.888Zm58.88,34.304l-0,-31.168l-11.584,-0l-0,31.168l11.584,-0Zm-12.352,-40.192c-0,3.904 3.136,5.888 6.528,5.888c3.392,-0 6.528,-1.984 6.528,-5.888c-0,-3.968 -3.136,-5.952 -6.528,-5.952c-3.392,-0 -6.528,1.984 -6.528,5.952Zm-40.64,9.024l-11.584,-0l-0,26.816c-0,4.032 -0.64,6.08 -4.288,8l2.304,7.808c10.432,-2.24 13.568,-7.424 13.568,-15.808l-0,-26.816Zm20.544,-0.576c-10.304,-0 -16.384,5.888 -16.384,16.32c-0,10.176 6.08,16 16.384,16c10.304,-0 16.384,-5.824 16.384,-16c-0,-10.432 -6.08,-16.32 -16.384,-16.32Zm-0,23.232c-3.2,-0 -5.056,-1.728 -5.056,-6.912c-0,-5.44 1.92,-7.232 5.056,-7.232c3.136,-0 5.056,1.792 5.056,7.232c-0,5.184 -1.92,6.912 -5.056,6.912Zm-0,-2.667c0.574,0 1.081,-0.042 1.457,-0.346c0.786,-0.636 0.932,-1.912 0.932,-3.899c-0,-2.159 -0.161,-3.528 -0.975,-4.215c-0.364,-0.307 -0.858,-0.35 -1.414,-0.35c-0.557,-0 -1.051,0.043 -1.415,0.35c-0.814,0.687 -0.975,2.056 -0.975,4.215c0,1.989 0.125,3.265 0.908,3.902c0.377,0.306 0.892,0.343 1.482,0.343Z" style="fill:#fff;"/></g></svg>