<?xml version="1.0" encoding="UTF-8" standalone="no"?><!DOCTYPE svg PUBLIC "-//W3C//DTD SVG 1.1//EN" "http://www.w3.org/Graphics/SVG/1.1/DTD/svg11.dtd"><svg width="100%" height="100%" viewBox="0 0 94 48" version="1.1" xmlns="http://www.w3.org/2000/svg" xmlns:xlink="http://www.w3.org/1999/xlink" xml:space="preserve" xmlns:serif="http://www.serif.com/" style="fill-rule:evenodd;clip-rule:evenodd;stroke-linejoin:round;stroke-miterlimit:2;"><rect id="Artboard1" x="0" y="0" width="93.559" height="47.165" style="fill:none;"/><g transform="matrix(0.75,0,0,0.75,-142.501,-262.572)"><g transform="matrix(72,0,0,72,186.474,400)"><path d="M0.057,-0.614c0,0.04 0.031,0.06 0.066,0.06c0.035,0 0.066,-0.02 0.066,-0.06c0,-0.04 -0.031,-0.061 -0.066,-0.061c-0.035,0 -0.066,0.021 -0.066,0.061Zm0.123,0.614l0,-0.475l-0.113,0l0,0.475l0.113,0Z" style="fill:#00abbe;fill-rule:nonzero;"/></g><g transform="matrix(72,0,0,72,204.186,400)"><path d="M0.176,-0.475l-0.113,0l0,0.475l0.113,-0l0,-0.304c0.04,-0.046 0.085,-0.074 0.136,-0.074c0.063,0 0.075,0.032 0.075,0.109l0,0.269l0.113,-0l0,-0.299c0,-0.129 -0.05,-0.185 -0.155,-0.185c-0.067,0 -0.117,0.029 -0.169,0.075l0,-0.066Z" style="fill:#00abbe;fill-rule:nonzero;"/></g><g transform="matrix(72,0,0,72,244.218,400)"><path d="M0.122,-0.554c0.035,0 0.066,-0.02 0.066,-0.06c0,-0.04 -0.031,-0.061 -0.066,-0.061c-0.035,0 -0.066,0.021 -0.066,0.061c0,0.04 0.031,0.06 0.066,0.06Zm0.057,0.079l-0.113,0l0,0.436c0,0.075 -0.01,0.103 -0.06,0.128l0.024,0.082c0.115,-0.027 0.149,-0.093 0.149,-0.21l0,-0.436Z" style="fill:#0b2e36;fill-rule:nonzero;"/></g><g transform="matrix(72,0,0,72,260.49,400)"><path d="M0.279,-0.484c-0.147,-0.001 -0.241,0.096 -0.241,0.249c-0,0.149 0.093,0.244 0.241,0.244c0.148,-0 0.242,-0.095 0.242,-0.244c0,-0.153 -0.094,-0.25 -0.242,-0.249Zm0,0.399c-0.08,-0 -0.13,-0.054 -0.13,-0.15c-0,-0.1 0.051,-0.156 0.13,-0.156c0.08,-0 0.131,0.056 0.131,0.156c0,0.096 -0.051,0.15 -0.131,0.15Z" style="fill:#0b2e36;fill-rule:nonzero;"/></g><g transform="matrix(72,0,0,72,300.306,400)"><path d="M0.057,-0.614c0,0.04 0.031,0.06 0.066,0.06c0.035,0 0.066,-0.02 0.066,-0.06c0,-0.04 -0.031,-0.061 -0.066,-0.061c-0.035,0 -0.066,0.021 -0.066,0.061Zm0.123,0.614l0,-0.475l-0.113,0l0,0.475l0.113,0Z" style="fill:#0b2e36;fill-rule:nonzero;"/></g></g></svg>