<?xml version="1.0" encoding="UTF-8" standalone="no"?><!DOCTYPE svg PUBLIC "-//W3C//DTD SVG 1.1//EN" "http://www.w3.org/Graphics/SVG/1.1/DTD/svg11.dtd"><svg width="100%" height="100%" viewBox="0 0 51 51" version="1.1" xmlns="http://www.w3.org/2000/svg" xmlns:xlink="http://www.w3.org/1999/xlink" xml:space="preserve" xmlns:serif="http://www.serif.com/" style="fill-rule:evenodd;clip-rule:evenodd;stroke-linejoin:round;stroke-miterlimit:1.5;"><rect id="Favicon" x="0.077" y="0.073" width="50.8" height="50.758" style="fill:none;"/><clipPath id="_clip1"><rect x="0.077" y="0.073" width="50.8" height="50.758"/></clipPath><g clip-path="url(#_clip1)"><path d="M50.748,12.741l-0,25.336c-0,6.991 -5.676,12.668 -12.668,12.668l-25.336,-0c-6.991,-0 -12.667,-5.677 -12.667,-12.668l-0,-25.336c-0,-6.992 5.676,-12.668 12.667,-12.668l25.336,0c6.992,0 12.668,5.676 12.668,12.668Z" style="fill:#fff;"/><path d="M13.796,44.076l27.355,-0" style="fill:none;stroke:#0b2e36;stroke-width:3px;"/><g transform="matrix(0.75,0,0,0.75,-127.883,-261.528)"><g transform="matrix(64,0,0,64,186.474,400)"><path d="M0.038,-0.628c0,0.061 0.049,0.092 0.102,0.092c0.053,0 0.102,-0.031 0.102,-0.092c-0,-0.062 -0.049,-0.093 -0.102,-0.093c-0.053,0 -0.102,0.031 -0.102,0.093Zm0.193,0.628l0,-0.487l-0.181,0l-0,0.487l0.181,-0Z" style="fill:#0b2e36;fill-rule:nonzero;"/></g><path d="M201.797,366.22c1.214,0.249 2.127,1.324 2.127,2.612l0,31.168c0,1.473 -1.194,2.667 -2.666,2.667l-11.584,-0c-1.473,-0 -2.667,-1.194 -2.667,-2.667l-0,-31.168c-0,-1.27 0.888,-2.332 2.076,-2.601c-1.729,-1.442 -2.844,-3.599 -2.844,-6.423c-0,-5.661 4.356,-8.619 9.195,-8.619c4.838,0 9.194,2.958 9.194,8.619c0,2.817 -1.109,4.97 -2.831,6.412Zm-12.891,-6.412c-0,3.904 3.136,5.888 6.528,5.888c3.392,-0 6.528,-1.984 6.528,-5.888c-0,-3.968 -3.136,-5.952 -6.528,-5.952c-3.392,-0 -6.528,1.984 -6.528,5.952Zm12.352,40.192l-0,-31.168l-11.584,-0l-0,31.168l11.584,-0Z" style="fill:#fff;"/><g transform="matrix(64,0,0,64,204.458,400)"><path d="M0.139,-0.536c0.053,0 0.102,-0.031 0.102,-0.092c-0,-0.062 -0.049,-0.093 -0.102,-0.093c-0.053,0 -0.102,0.031 -0.102,0.093c-0,0.061 0.049,0.092 0.102,0.092Zm0.092,0.049l-0.181,0l-0,0.419c-0,0.063 -0.01,0.095 -0.067,0.125l0.036,0.122c0.163,-0.035 0.212,-0.116 0.212,-0.247l0,-0.419Z" style="fill:#00abbe;fill-rule:nonzero;"/></g><path d="M207.017,366.243c-1.737,-1.442 -2.858,-3.604 -2.858,-6.435c-0,-5.661 4.356,-8.619 9.195,-8.619c4.838,0 9.194,2.958 9.194,8.619c0,2.81 -1.104,4.96 -2.819,6.402c1.24,0.229 2.179,1.316 2.179,2.622l0,26.816c0,4.886 -1.018,8.81 -3.452,11.868c-2.398,3.014 -6.232,5.261 -12.223,6.547c-1.363,0.293 -2.722,-0.515 -3.117,-1.852l-2.304,-7.808c-0.36,-1.219 0.191,-2.523 1.316,-3.115c0.996,-0.524 1.698,-1.018 2.141,-1.652c0.698,-0.999 0.722,-2.251 0.722,-3.988l-0,-26.816c-0,-1.252 0.863,-2.303 2.026,-2.589Zm6.337,-0.547c3.392,-0 6.528,-1.984 6.528,-5.888c-0,-3.968 -3.136,-5.952 -6.528,-5.952c-3.392,-0 -6.528,1.984 -6.528,5.952c-0,3.904 3.136,5.888 6.528,5.888Zm5.888,3.136l-11.584,-0l-0,26.816c-0,4.032 -0.64,6.08 -4.288,8l2.304,7.808c10.432,-2.24 13.568,-7.424 13.568,-15.808l-0,-26.816Z" style="fill:#fff;"/></g></g></svg>